<svg class="brightness-0 invert mx-auto md:mx-0" fill="none" height="35" viewBox="0 0 111 35" width="110" xmlns="http://www.w3.org/2000/svg">
<title>SCIO</title>
<path d="M19.51 16.01a59.32 59.32 0 0 0-4.64-1.55c-1.5-.43-2.8-.97-3.85-1.6-1.01-.6-1.5-1.37-1.5-2.35 0-.87.36-1.6 1.1-2.22a4.54 4.54 0 0 1 3-.94c1.04 0 2.06.24 3.05.73 1 .48 1.65.87 1.95 1.16.31.3.56.54.73.74l.17.2 4.42-4.65-.54-.6a6.8 6.8 0 0 0-1.3-1.13A13.96 13.96 0 0 0 17 1.47c-1.23-.3-2.52-.46-3.84-.46-3.35 0-6.11.93-8.21 2.77a8.68 8.68 0 0 0-3.18 6.73c0 2.12.56 3.9 1.67 5.3a9.44 9.44 0 0 0 4.02 2.98c1.54.59 3.1 1.1 4.65 1.54 1.52.43 2.82.96 3.87 1.6 1.01.6 1.5 1.38 1.5 2.36 0 1.11-.42 2-1.3 2.73a5.68 5.68 0 0 1-3.7 1.1 9.06 9.06 0 0 1-4-.93 10.61 10.61 0 0 1-2.45-1.47c-.37-.36-.67-.67-.87-.9l-.17-.19-4.45 4.4.66.7c.3.37.81.82 1.5 1.34a15 15 0 0 0 5.87 2.86c1.4.36 2.87.55 4.37.55 3.8 0 6.83-.96 9.01-2.84a9.32 9.32 0 0 0 3.3-7.35c0-2.12-.57-3.9-1.68-5.29a9.42 9.42 0 0 0-4.05-2.99ZM55.37 23.93c-.23.3-.6.68-1.12 1.1-.52.44-1.13.87-1.82 1.3a11.38 11.38 0 0 1-5.83 1.56 9.99 9.99 0 0 1-10.23-10.16A9.99 9.99 0 0 1 46.6 7.57a11.46 11.46 0 0 1 5.57 1.54c.62.38 1.2.83 1.72 1.33A10.05 10.05 0 0 1 55.3 12l.15.22 4.67-4.64-.63-.83c-.34-.44-.88-.97-1.65-1.6a26.33 26.33 0 0 0-2.6-1.87 14.63 14.63 0 0 0-3.79-1.61 17.56 17.56 0 0 0-4.84-.66c-4.9 0-9.1 1.65-12.47 4.9a15.9 15.9 0 0 0-5.08 11.82c0 4.6 1.71 8.58 5.08 11.84a17.32 17.32 0 0 0 12.47 4.9c1.67 0 3.32-.23 4.88-.69 1.56-.46 2.84-.97 3.8-1.53.97-.56 1.89-1.21 2.73-1.95.86-.74 1.4-1.25 1.65-1.55.25-.3.44-.53.56-.71l.1-.16-4.43-4.64-.52.7ZM64.66 33.6h7.32V1.7h-7.32v31.9Z" fill="#54565A"></path>
<circle cx="93.5" cy="17.5" fill="#0075FF" r="17"></circle>
</svg>